<?xml version="1.0" encoding="utf-8"?>
<!-- Generator: Adobe Illustrator 23.0.2, SVG Export Plug-In . SVG Version: 6.00 Build 0)  -->
<svg version="1.1" id="Layer_1" xmlns="http://www.w3.org/2000/svg" xmlns:xlink="http://www.w3.org/1999/xlink" x="0px" y="0px"
	 viewBox="0 0 73.81 117.46" style="enable-background:new 0 0 73.81 117.46;" xml:space="preserve">
<style type="text/css">
	.st0{fill:url(#SVGID_1_);}
	.st1{fill:url(#SVGID_2_);}
</style>
<g>
	<g>
		<g>
			<linearGradient id="SVGID_1_" gradientUnits="userSpaceOnUse" x1="35.1333" y1="-10.9863" x2="35.1333" y2="148.0469">
				<stop  offset="0" style="stop-color:#AED136"/>
				<stop  offset="1" style="stop-color:#006B38"/>
			</linearGradient>
			<path class="st0" d="M35.13,53.06c-7.18,0-13.02-5.84-13.02-13.02c0-7.18,5.84-13.02,13.02-13.02c7.18,0,13.02,5.84,13.02,13.02
				c0,1.42-1.15,2.57-2.57,2.57H33.83c-1.42,0-2.57-1.15-2.57-2.57c0-1.42,1.15-2.57,2.57-2.57h8.74c-1.07-3.08-4-5.3-7.44-5.3
				c-4.34,0-7.88,3.53-7.88,7.88c0,4.34,3.53,7.88,7.88,7.88c1.57,0,3.09-0.46,4.39-1.34c0.54-0.37,1.04-0.8,1.48-1.29
				c0.95-1.06,2.58-1.15,3.63-0.2c1.06,0.95,1.15,2.58,0.2,3.63c-0.72,0.81-1.54,1.52-2.44,2.13C40.24,52.3,37.73,53.06,35.13,53.06
				z"/>
		</g>
	</g>
	<linearGradient id="SVGID_2_" gradientUnits="userSpaceOnUse" x1="37.6979" y1="-10.9862" x2="37.6979" y2="148.047">
		<stop  offset="0" style="stop-color:#AED136"/>
		<stop  offset="1" style="stop-color:#006B38"/>
	</linearGradient>
	<path class="st1" d="M70.13,40.2c0,0.18,0,0.37-0.02,0.55c0,0.12-0.01,0.25-0.01,0.38c-0.22,4.19-1.88,9.73-4.37,15.87
		c-9.39,23.23-30.61,55.09-30.61,55.09s-14.11-21.2-24.4-41.62c5.92,3.84,12.97,6.06,20.55,6.06c6.35,0,12.33-1.56,17.58-4.32
		C44.65,74.01,40.02,75,35.16,75C23.17,75,12.59,68.97,6.3,59.77c-0.63-0.93-1.03-2.01-1.03-3.13c0-0.01,0-0.01,0-0.02
		c0-5.58,4.51-10.58,10.61-10.58c2.5,8.27,10.18,14.28,19.26,14.28c11.87,0,21.35-10.29,20.01-22.43
		c-1.05-9.48-8.88-17.03-18.39-17.78c-0.54-0.04-1.08-0.06-1.61-0.06c-8.97,0-16.57,5.87-19.17,13.98c-8.35,0-13.09-9.76-7.76-16.19
		C14.62,10.12,24.3,5.2,35.13,5.2c13.52,0,25.25,7.67,31.09,18.89c2.11,4.07,3.45,8.6,3.81,13.41c0.04,0.54,0.07,1.09,0.08,1.63
		C70.12,39.49,70.13,39.84,70.13,40.2z"/>
</g>
</svg>
